<svg xmlns="http://www.w3.org/2000/svg" xmlns:xlink="http://www.w3.org/1999/xlink" width="400" zoomAndPan="magnify" viewBox="0 0 300 149.999998" height="200" preserveAspectRatio="xMidYMid meet" version="1.0"><defs><g/><clipPath id="659fb5984e"><path d="M 127.40625 29.25 L 166.40625 29.25 L 166.40625 68.578125 L 127.40625 68.578125 Z M 127.40625 29.25 " clip-rule="nonzero"/></clipPath><clipPath id="38a8b36c2e"><path d="M 133.285156 29.25 L 172.34375 29.25 L 172.34375 68.578125 L 133.285156 68.578125 Z M 133.285156 29.25 " clip-rule="nonzero"/></clipPath><clipPath id="702a89a29d"><path d="M 127.40625 24.671875 L 172.34375 24.671875 L 172.34375 53.425781 L 127.40625 53.425781 Z M 127.40625 24.671875 " clip-rule="nonzero"/></clipPath><clipPath id="bfabe1cffb"><path d="M 133 24.328125 L 167 24.328125 L 167 64 L 133 64 Z M 133 24.328125 " clip-rule="nonzero"/></clipPath></defs><rect x="-30" width="360" fill="#ffffff" y="-15" height="179.999997" fill-opacity="1"/><rect x="-30" width="360" fill="#ffffff" y="-15" height="179.999997" fill-opacity="1"/><rect x="-30" width="360" fill="#f6f6f6" y="-15" height="179.999997" fill-opacity="1"/><g clip-path="url(#659fb5984e)"><path fill="#7779f8" d="M 142.5625 44.929688 C 142.550781 44.929688 142.535156 44.929688 142.535156 44.929688 L 129.789062 44.746094 C 128.453125 44.730469 127.378906 43.628906 127.40625 42.296875 C 127.421875 40.980469 128.511719 39.921875 129.832031 39.921875 C 129.84375 39.921875 129.859375 39.921875 129.859375 39.921875 L 142.605469 40.109375 C 143.941406 40.125 145.015625 41.226562 144.988281 42.554688 C 144.972656 43.871094 143.882812 44.929688 142.5625 44.929688 Z M 155.941406 68.578125 C 155.082031 68.578125 154.25 68.121094 153.804688 67.320312 L 147.726562 56.148438 C 147.09375 54.972656 147.523438 53.515625 148.699219 52.871094 C 149.875 52.242188 151.335938 52.671875 151.984375 53.84375 L 158.0625 65.015625 C 158.691406 66.191406 158.261719 67.648438 157.085938 68.292969 C 156.730469 68.480469 156.328125 68.578125 155.941406 68.578125 Z M 157.144531 40.109375 L 161.617188 40.039062 L 166.035156 33.058594 C 166.738281 31.925781 166.40625 30.4375 165.273438 29.722656 C 164.140625 29.023438 162.652344 29.351562 161.933594 30.480469 L 155.394531 40.839844 C 155.367188 40.898438 155.339844 40.953125 155.308594 40.996094 C 155.738281 40.46875 156.398438 40.125 157.144531 40.109375 " fill-opacity="1" fill-rule="nonzero"/></g><g clip-path="url(#38a8b36c2e)"><path fill="#3db3f9" d="M 157.1875 44.929688 C 155.867188 44.929688 154.792969 43.871094 154.765625 42.554688 C 154.75 41.226562 155.8125 40.125 157.144531 40.109375 L 169.875 39.921875 C 171.238281 39.910156 172.3125 40.96875 172.328125 42.296875 C 172.34375 43.628906 171.28125 44.730469 169.949219 44.746094 L 157.214844 44.929688 C 157.203125 44.929688 157.203125 44.929688 157.1875 44.929688 Z M 138.117188 40.039062 L 142.605469 40.109375 C 143.335938 40.125 143.984375 40.453125 144.414062 40.96875 C 144.398438 40.925781 144.371094 40.898438 144.355469 40.855469 L 137.816406 30.496094 C 137.101562 29.367188 135.609375 29.023438 134.476562 29.738281 C 133.34375 30.453125 133 31.941406 133.714844 33.070312 Z M 147.726562 56.148438 C 147.394531 55.519531 147.351562 54.816406 147.566406 54.203125 C 147.550781 54.214844 147.539062 54.246094 147.539062 54.257812 L 141.6875 65.015625 C 141.058594 66.191406 141.488281 67.664062 142.664062 68.292969 C 143.023438 68.480469 143.421875 68.578125 143.808594 68.578125 C 144.671875 68.578125 145.503906 68.121094 145.945312 67.320312 L 149.875 60.097656 L 147.726562 56.148438 " fill-opacity="1" fill-rule="nonzero"/></g><g clip-path="url(#702a89a29d)"><path fill="#e1776f" d="M 149.859375 40.667969 C 149.472656 40.667969 149.074219 40.566406 148.714844 40.382812 C 147.539062 39.753906 147.109375 38.277344 147.738281 37.105469 L 153.816406 25.933594 C 154.449219 24.757812 155.925781 24.328125 157.101562 24.957031 C 158.277344 25.589844 158.707031 27.0625 158.078125 28.234375 L 151.996094 39.410156 C 151.554688 40.210938 150.722656 40.667969 149.859375 40.667969 Z M 140.5 49.410156 C 140.886719 48.808594 141.472656 48.4375 142.117188 48.320312 C 142.105469 48.320312 142.089844 48.320312 142.089844 48.320312 C 142.089844 48.320312 142.074219 48.320312 142.0625 48.320312 L 129.789062 48.492188 C 128.453125 48.507812 127.394531 49.609375 127.40625 50.941406 C 127.4375 52.253906 128.511719 53.3125 129.832031 53.3125 C 129.832031 53.3125 129.84375 53.3125 129.859375 53.3125 L 138.105469 53.199219 Z M 169.964844 48.492188 L 157.691406 48.320312 C 157.691406 48.320312 157.675781 48.320312 157.660156 48.320312 C 157.660156 48.320312 157.660156 48.320312 157.644531 48.320312 C 158.277344 48.4375 158.878906 48.824219 159.253906 49.410156 L 161.648438 53.199219 L 169.890625 53.3125 C 169.890625 53.3125 169.90625 53.3125 169.917969 53.3125 C 171.238281 53.3125 172.328125 52.253906 172.34375 50.941406 C 172.371094 49.609375 171.296875 48.507812 169.964844 48.492188 " fill-opacity="1" fill-rule="nonzero"/></g><g clip-path="url(#bfabe1cffb)"><path fill="#a16ad6" d="M 135.753906 63.871094 C 135.308594 63.871094 134.863281 63.757812 134.460938 63.5 C 133.328125 62.785156 133 61.296875 133.703125 60.167969 L 140.5 49.410156 C 141.214844 48.277344 142.707031 47.949219 143.839844 48.652344 C 144.972656 49.367188 145.300781 50.855469 144.597656 51.984375 L 137.804688 62.742188 C 137.34375 63.472656 136.554688 63.871094 135.753906 63.871094 Z M 164 63.871094 C 163.195312 63.871094 162.40625 63.472656 161.949219 62.742188 L 155.152344 51.984375 C 154.433594 50.855469 154.777344 49.367188 155.910156 48.652344 C 157.042969 47.933594 158.535156 48.277344 159.253906 49.410156 L 166.046875 60.167969 C 166.765625 61.296875 166.421875 62.785156 165.289062 63.5 C 164.886719 63.757812 164.441406 63.871094 164 63.871094 Z M 147.738281 37.105469 L 149.875 33.183594 L 145.933594 25.933594 C 145.289062 24.757812 143.824219 24.328125 142.648438 24.957031 C 141.472656 25.601562 141.042969 27.0625 141.675781 28.234375 L 147.523438 38.992188 C 147.550781 39.050781 147.582031 39.109375 147.625 39.152344 C 147.367188 38.507812 147.378906 37.761719 147.738281 37.105469 " fill-opacity="1" fill-rule="nonzero"/></g><g fill="#231f20" fill-opacity="1"><g transform="translate(59.118921, 94.885087)"><g><path d="M 13.953125 -14.328125 L 13.953125 0 L 9.96875 0 L 9.96875 -5.75 L 5.125 -5.75 L 5.125 0 L 1.140625 0 L 1.140625 -14.328125 L 5.125 -14.328125 L 5.125 -8.9375 L 9.96875 -8.9375 L 9.96875 -14.328125 Z M 13.953125 -14.328125 "/></g></g></g><g fill="#231f20" fill-opacity="1"><g transform="translate(78.275882, 94.885087)"><g><path d="M 5.125 -11.125 L 5.125 -8.796875 L 9.6875 -8.796875 L 9.6875 -5.765625 L 5.125 -5.765625 L 5.125 -3.1875 L 10.296875 -3.1875 L 10.296875 0 L 1.140625 0 L 1.140625 -14.328125 L 10.296875 -14.328125 L 10.296875 -11.125 Z M 5.125 -11.125 "/></g></g></g><g fill="#231f20" fill-opacity="1"><g transform="translate(93.471726, 94.885087)"><g><path d="M 10.203125 -2.34375 L 5.125 -2.34375 L 4.34375 0 L 0.15625 0 L 5.390625 -14.328125 L 9.96875 -14.328125 L 15.171875 0 L 10.96875 0 Z M 9.203125 -5.390625 L 7.65625 -10.015625 L 6.140625 -5.390625 Z M 9.203125 -5.390625 "/></g></g></g><g fill="#231f20" fill-opacity="1"><g transform="translate(112.872436, 94.885087)"><g><path d="M 5.125 -3.046875 L 9.5625 -3.046875 L 9.5625 0 L 1.140625 0 L 1.140625 -14.328125 L 5.125 -14.328125 Z M 5.125 -3.046875 "/></g></g></g><g fill="#231f20" fill-opacity="1"><g transform="translate(126.910422, 94.885087)"><g><path d="M 11.921875 -14.328125 L 11.921875 -11.15625 L 8.109375 -11.15625 L 8.109375 0 L 4.125 0 L 4.125 -11.15625 L 0.34375 -11.15625 L 0.34375 -14.328125 Z M 11.921875 -14.328125 "/></g></g></g><g fill="#231f20" fill-opacity="1"><g transform="translate(143.243823, 94.885087)"><g><path d="M 13.953125 -14.328125 L 13.953125 0 L 9.96875 0 L 9.96875 -5.75 L 5.125 -5.75 L 5.125 0 L 1.140625 0 L 1.140625 -14.328125 L 5.125 -14.328125 L 5.125 -8.9375 L 9.96875 -8.9375 L 9.96875 -14.328125 Z M 13.953125 -14.328125 "/></g></g></g><g fill="#231f20" fill-opacity="1"><g transform="translate(162.400786, 94.885087)"><g><path d="M 21.3125 -14.328125 L 17.796875 0 L 12.90625 0 L 10.921875 -8.78125 L 8.921875 0 L 4.015625 0 L 0.546875 -14.328125 L 4.859375 -14.328125 L 6.515625 -4.53125 L 8.78125 -14.328125 L 13.140625 -14.328125 L 15.34375 -4.609375 L 17 -14.328125 Z M 21.3125 -14.328125 "/></g></g></g><g fill="#231f20" fill-opacity="1"><g transform="translate(188.322098, 94.885087)"><g><path d="M 8 0.140625 C 6.664062 0.140625 5.4375 -0.171875 4.3125 -0.796875 C 3.1875 -1.429688 2.296875 -2.304688 1.640625 -3.421875 C 0.984375 -4.535156 0.65625 -5.800781 0.65625 -7.21875 C 0.65625 -8.625 0.984375 -9.882812 1.640625 -11 C 2.296875 -12.113281 3.1875 -12.984375 4.3125 -13.609375 C 5.4375 -14.234375 6.664062 -14.546875 8 -14.546875 C 9.351562 -14.546875 10.585938 -14.234375 11.703125 -13.609375 C 12.828125 -12.984375 13.710938 -12.113281 14.359375 -11 C 15.015625 -9.882812 15.34375 -8.625 15.34375 -7.21875 C 15.34375 -5.800781 15.015625 -4.535156 14.359375 -3.421875 C 13.710938 -2.304688 12.828125 -1.429688 11.703125 -0.796875 C 10.578125 -0.171875 9.34375 0.140625 8 0.140625 Z M 8 -3.5625 C 9.019531 -3.5625 9.820312 -3.890625 10.40625 -4.546875 C 11 -5.210938 11.296875 -6.101562 11.296875 -7.21875 C 11.296875 -8.351562 11 -9.25 10.40625 -9.90625 C 9.820312 -10.5625 9.019531 -10.890625 8 -10.890625 C 6.96875 -10.890625 6.160156 -10.5625 5.578125 -9.90625 C 5.003906 -9.25 4.71875 -8.351562 4.71875 -7.21875 C 4.71875 -6.09375 5.003906 -5.203125 5.578125 -4.546875 C 6.160156 -3.890625 6.96875 -3.5625 8 -3.5625 Z M 8 -3.5625 "/></g></g></g><g fill="#231f20" fill-opacity="1"><g transform="translate(208.372833, 94.885087)"><g><path d="M 8.390625 0 L 5.546875 -5.28125 L 5.125 -5.28125 L 5.125 0 L 1.140625 0 L 1.140625 -14.328125 L 7.421875 -14.328125 C 8.566406 -14.328125 9.535156 -14.125 10.328125 -13.71875 C 11.128906 -13.320312 11.734375 -12.773438 12.140625 -12.078125 C 12.546875 -11.378906 12.75 -10.597656 12.75 -9.734375 C 12.75 -8.753906 12.484375 -7.894531 11.953125 -7.15625 C 11.421875 -6.414062 10.640625 -5.894531 9.609375 -5.59375 L 12.84375 0 Z M 5.125 -8 L 7.09375 -8 C 7.632812 -8 8.039062 -8.128906 8.3125 -8.390625 C 8.582031 -8.648438 8.71875 -9.019531 8.71875 -9.5 C 8.71875 -9.96875 8.578125 -10.332031 8.296875 -10.59375 C 8.015625 -10.851562 7.613281 -10.984375 7.09375 -10.984375 L 5.125 -10.984375 Z M 5.125 -8 "/></g></g></g><g fill="#231f20" fill-opacity="1"><g transform="translate(225.864087, 94.885087)"><g><path d="M 10.09375 0 L 7.3125 -4.046875 L 4.9375 0 L 0.40625 0 L 5.0625 -7.328125 L 0.25 -14.328125 L 4.9375 -14.328125 L 7.640625 -10.375 L 9.953125 -14.328125 L 14.484375 -14.328125 L 9.890625 -7.109375 L 14.78125 0 Z M 10.09375 0 "/></g></g></g><g fill="#000000" fill-opacity="1"><g transform="translate(112.579125, 122.707484)"><g><path d="M 4.664062 0.136719 C 6.796875 0.136719 8.453125 -1.011719 8.453125 -3.039062 C 8.453125 -5.277344 6.550781 -5.722656 4.863281 -6.136719 C 3.480469 -6.457031 2.238281 -6.765625 2.238281 -7.929688 C 2.238281 -8.960938 3.222656 -9.574219 4.527344 -9.574219 C 5.828125 -9.574219 6.8125 -8.882812 6.8125 -7.6875 L 8.144531 -7.6875 C 8.144531 -9.632812 6.78125 -10.863281 4.554688 -10.863281 C 2.332031 -10.863281 0.90625 -9.742188 0.90625 -7.886719 C 0.90625 -5.738281 2.730469 -5.292969 4.386719 -4.910156 C 5.785156 -4.570312 7.058594 -4.28125 7.058594 -3.023438 C 7.058594 -1.886719 6 -1.179688 4.648438 -1.179688 C 3.160156 -1.179688 2.070312 -1.964844 2.070312 -3.296875 L 0.691406 -3.296875 C 0.691406 -1.179688 2.300781 0.136719 4.664062 0.136719 Z M 4.664062 0.136719 "/></g></g></g><g fill="#000000" fill-opacity="1"><g transform="translate(125.296563, 122.707484)"><g><path d="M 8.191406 -10.738281 L 0.320312 -10.738281 L 0.320312 -9.464844 L 3.589844 -9.464844 L 3.589844 0 L 4.925781 0 L 4.925781 -9.464844 L 8.191406 -9.464844 Z M 8.191406 -10.738281 "/></g></g></g><g fill="#000000" fill-opacity="1"><g transform="translate(137.385127, 122.707484)"><g><path d="M 5.554688 0.183594 C 7.960938 0.183594 9.757812 -1.550781 9.757812 -3.988281 L 9.757812 -10.738281 L 8.40625 -10.738281 L 8.40625 -4.097656 C 8.40625 -2.316406 7.210938 -1.136719 5.554688 -1.136719 C 3.882812 -1.136719 2.699219 -2.316406 2.699219 -4.097656 L 2.699219 -10.738281 L 1.335938 -10.738281 L 1.335938 -3.988281 C 1.335938 -1.550781 3.128906 0.183594 5.554688 0.183594 Z M 5.554688 0.183594 "/></g></g></g><g fill="#000000" fill-opacity="1"><g transform="translate(152.050527, 122.707484)"><g><path d="M 5.03125 -10.738281 L 1.457031 -10.738281 L 1.457031 0 L 5.03125 0 C 8.191406 0 10.476562 -2.253906 10.476562 -5.371094 C 10.476562 -8.46875 8.191406 -10.722656 5.03125 -10.722656 Z M 5 -1.257812 L 2.808594 -1.257812 L 2.808594 -9.464844 L 5 -9.464844 C 7.410156 -9.464844 9.113281 -7.730469 9.113281 -5.371094 C 9.113281 -2.992188 7.410156 -1.257812 5 -1.257812 Z M 5 -1.257812 "/></g></g></g><g fill="#000000" fill-opacity="1"><g transform="translate(166.853972, 122.707484)"><g><path d="M 1.457031 0 L 2.808594 0 L 2.808594 -10.738281 L 1.457031 -10.738281 Z M 1.457031 0 "/></g></g></g><g fill="#000000" fill-opacity="1"><g transform="translate(174.693823, 122.707484)"><g><path d="M 6.351562 0.183594 C 9.601562 0.183594 11.964844 -2.195312 11.964844 -5.355469 C 11.964844 -8.53125 9.601562 -10.90625 6.351562 -10.90625 C 3.097656 -10.90625 0.722656 -8.53125 0.722656 -5.355469 C 0.722656 -2.195312 3.097656 0.183594 6.351562 0.183594 Z M 6.351562 -1.136719 C 3.910156 -1.136719 2.101562 -2.960938 2.101562 -5.355469 C 2.101562 -7.761719 3.910156 -9.589844 6.351562 -9.589844 C 8.789062 -9.589844 10.601562 -7.777344 10.601562 -5.355469 C 10.601562 -2.945312 8.789062 -1.136719 6.351562 -1.136719 Z M 6.351562 -1.136719 "/></g></g></g></svg>